# xmcd
#
# Track frame offsets:
#	150
#	14126
#	28361
#	42226
#	53716
#	67071
#	77133
#	87148
#	95239
#	107158
#	116758
#	126906
#	141151
#	160100
#	176120
#	187095
#	203567
#	216693
#	230072
#	249554
#	264234
#	284987
#	302553
#	315403
#
# Disc length: 4368 seconds
#
# Revision: 0
# Processed by: cddbd v1.5.2PL0 Copyright (c) Steve Scherf et al.
# Submitted via: EasyCDDAExtractor 12.0.1.1
#
DISCID=77110e18
DTITLE=Johnny Cash - Complete Recording Sessions [Cd 14] 1964-1965 Sessions
DYEAR=2005
DGENRE=Country
TTITLE0=It Ain't Me Babe
TTITLE1=The Long Black Veil
TTITLE2=Mama, You've Been On My Mind
TTITLE3=The Baby Is Mine
TTITLE4=Don't Think Twice It's Alright
TTITLE5=The Wall
TTITLE6=Wildwood Flower
TTITLE7=You Wild Colorado
TTITLE8=When It's Springtime In Alaska
TTITLE9=Amen
TTITLE10=All God's Children Ain't Free
TTITLE11=Orange Blossom Special
TTITLE12=Danny Boy
TTITLE13=Engine 143
TTITLE14=Burymenot On Thelonelypraire
TTITLE15=The Streets Of Laredo
TTITLE16=Shifting Whispering Sands,pt.1
TTITLE17=I Ride An Old Paint
TTITLE18=Hardin Wouldn't Run
TTITLE19=Sam Hall
TTITLE20=Mister Garfield
TTITLE21=The Blizzard
TTITLE22=Johnny Reb
TTITLE23=The Road To Kaintuck
EXTD=
EXTT0=
EXTT1=
EXTT2=
EXTT3=
EXTT4=
EXTT5=
EXTT6=
EXTT7=
EXTT8=
EXTT9=
EXTT10=
EXTT11=
EXTT12=
EXTT13=
EXTT14=
EXTT15=
EXTT16=
EXTT17=
EXTT18=
EXTT19=
EXTT20=
EXTT21=
EXTT22=
EXTT23=
PLAYORDER=
